<?xml version="1.0" encoding="UTF-8"?>
<svg xmlns="http://www.w3.org/2000/svg" style="stroke-dasharray:none; shape-rendering:auto; font-family:'Arial'; text-rendering:auto; fill-opacity:1; color-interpolation:auto; color-rendering:auto; font-size:12; fill:black; stroke:black; image-rendering:auto; stroke-miterlimit:10; stroke-linecap:square; stroke-linejoin:miter; font-style:normal; stroke-width:1; stroke-dashoffset:0; font-weight:normal; stroke-opacity:1;" contentScriptType="text/ecmascript" preserveAspectRatio="xMidYMid meet" zoomAndPan="magnify" version="1.0" contentStyleType="text/css" xml:xlink="http://www.w3.org/1999/xlink" width="901" height="452"><rect x="0" y="301" width="901" height="145" ry="0" rx="0" style="stroke:#000000; fill:#D0DAAE" /><g componentSequence="18"><text x="-373" y="7" transform="rotate(270)" text-anchor="middle" style="font-weight:bold;font-size:10px;stroke:none; fill:#434343"><tspan dy="14" x="-373">SwimLane</tspan></text></g><rect x="0" y="157" width="901" height="145" ry="0" rx="0" style="stroke:#000000; fill:#ADC9AC" /><g componentSequence="14"><text x="-229" y="7" transform="rotate(270)" text-anchor="middle" style="font-weight:bold;font-size:10px;stroke:none; fill:#434343"><tspan dy="14" x="-229">SwimLane</tspan></text></g><rect x="0" y="10" width="901" height="145" ry="0" rx="0" style="stroke:#000000; fill:#82B0B7" /><g componentSequence="13"><text x="-82" y="7" transform="rotate(270)" text-anchor="middle" style="font-weight:bold;font-size:10px;stroke:none; fill:#434343"><tspan dy="14" x="-82">SwimLane</tspan></text></g><g sequence="4"><ellipse cx="117" cy="77" rx="17" ry="17" stroke-width="1" style="fill:url(#linearGradient66FF6696FF96B6FFB6_1835200206);" stroke="336633" /></g><g sequence="9"><rect x="90" y="203" width="106" height="56" ry="5" rx="5" style="fill:url(#linearGradientF8FBFEEDF5FCDEEDFAD4E7F8E2E5E9_1671761170);" stroke="191970" /></g><g componentSequence="9"><text x="143" y="220" text-anchor="middle" style="font-weight:bold;font-size:10px;stroke:none; fill:#333399"><tspan dy="14" x="143">Avaliar item</tspan></text></g><g sequence="11"><polygon points=" 320 63 350 33 380 63 350 93 320 63" style="fill:url(#linearGradientFAFBFCFFFFCC_1738180030);" stroke="000000" /></g><g componentSequence="11"><text x="350" y="103" text-anchor="middle" style="font-weight:bold;font-size:10px;stroke:none; fill:#333399"><tspan dy="14" x="350">Exclusiv</tspan><tspan dy="14" x="350">o</tspan></text></g><g sequence="15"><rect x="540" y="49" width="106" height="70" ry="5" rx="5" style="fill:url(#linearGradientF8FBFEEDF5FCDEEDFAD4E7F8E2E5E9_580388649);" stroke="191970" /></g><g componentSequence="15"><text x="593" y="64" text-anchor="middle" style="font-weight:bold;font-size:10px;stroke:none; fill:#333399"><tspan dy="14" x="593">Resolver</tspan><tspan dy="14" x="593">restrições</tspan></text></g><g sequence="19"><rect x="310" y="170" width="106" height="70" ry="5" rx="5" style="fill:url(#linearGradientF8FBFEEDF5FCDEEDFAD4E7F8E2E5E9_1484163370);" stroke="191970" /></g><g componentSequence="19"><text x="363" y="194" text-anchor="middle" style="font-weight:bold;font-size:10px;stroke:none; fill:#333399"><tspan dy="14" x="363">Encaminhar item</tspan></text></g><g sequence="21"><ellipse cx="807" cy="390" rx="17" ry="17" stroke-width="3" style="fill:url(#linearGradientFF6666FF9696FFB6B6_334545579);" stroke="993333" /></g><g sequence="26"><ellipse cx="857" cy="83" rx="17" ry="17" stroke-width="3" style="fill:url(#linearGradientFF6666FF9696FFB6B6_552866334);" stroke="993333" /></g><g sequence="26"><polygon points=" 848 79 853 74 858 79 863 74 868 79 863 84 868 89 863 94 858 89 853 94 848 89 853 84" style="stroke:none; fill:#993333" /></g><g sequence="27"><polygon points=" 550 380 580 350 610 380 580 410 550 380" style="fill:url(#linearGradientFAFBFCFFFFCC_1119352934);" stroke="000000" /></g><g componentSequence="27"><text x="580" y="420" text-anchor="middle" style="font-weight:bold;font-size:10px;stroke:none; fill:#333399"><tspan dy="14" x="580">Exclusiv</tspan><tspan dy="14" x="580">o</tspan></text></g><g sequence="32"><polygon points=" 330 370 360 340 390 370 360 400 330 370" style="fill:url(#linearGradientFAFBFCFFFFCC_786695875);" stroke="000000" /></g><g componentSequence="32"><text x="360" y="410" text-anchor="middle" style="font-weight:bold;font-size:10px;stroke:none; fill:#333399"><tspan dy="14" x="360">Exclusiv</tspan><tspan dy="14" x="360">o</tspan></text></g><g sequence="34"><ellipse cx="137" cy="391" rx="17" ry="17" stroke-width="3" style="fill:url(#linearGradientFF6666FF9696FFB6B6_991194158);" stroke="993333" /></g><g componentSequence="12"><text x="261" y="154" style="font-size:10px;font-weight:none;stroke:none; fill:#333399" text-anchor="left" /></g><g componentSequence="16"><text x="470" y="84" style="font-size:10px;font-weight:none;stroke:none; fill:#333399" text-anchor="left" /></g><g componentSequence="20"><text x="367" y="152" style="font-size:10px;font-weight:none;stroke:none; fill:#333399" text-anchor="left" /></g><g componentSequence="28"><text x="597" y="234" style="font-size:10px;font-weight:none;stroke:none; fill:#333399" text-anchor="left" /></g><g componentSequence="29"><text x="736" y="234" style="font-size:10px;font-weight:none;stroke:none; fill:#333399" text-anchor="left" /></g><g componentSequence="30"><text x="710" y="395" style="font-size:10px;font-weight:none;stroke:none; fill:#333399" text-anchor="left" /></g><g componentSequence="31"><text x="139" y="149" style="font-size:10px;font-weight:none;stroke:none; fill:#333399" text-anchor="left" /></g><g componentSequence="33"><text x="371" y="290" style="font-size:10px;font-weight:none;stroke:none; fill:#333399" text-anchor="left" /></g><g componentSequence="35"><text x="252" y="391" style="font-size:10px;font-weight:none;stroke:none; fill:#333399" text-anchor="left" /></g><g componentSequence="36"><text x="265" y="314" style="font-size:10px;font-weight:none;stroke:none; fill:#333399" text-anchor="left" /></g><path style="fill:none; stroke:#000000;stroke-width:1" d="M119.0 94.0 L138.0 202.0" /><polygon style="fill:#000000; stroke:#000000;" points=" 141 191 138 202 131 193 137 194" /><path style="fill:none; stroke:#000000;stroke-width:1" d="M183.0 202.0 L319.0 105.0" /><polygon style="fill:#000000; stroke:#000000;" points=" 308 107 319 105 314 115 312 110" /><path style="fill:none; stroke:#000000;stroke-width:1" d="M329.0 368.0 L181.0 259.0" /><polygon style="fill:#000000; stroke:#000000;" points=" 186 269 181 259 192 261 187 264" /><path style="fill:none; stroke:#000000;stroke-width:1" d="M380.0 84.0 L539.0 84.0" /><polygon style="fill:#000000; stroke:#000000;" points=" 529 79 539 84 529 89 531 84" /><path style="fill:none; stroke:#000000;stroke-width:1" d="M355.0 135.0 L359.0 169.0" /><polygon style="fill:#000000; stroke:#000000;" points=" 363 158 359 169 353 160 358 161" /><path style="fill:none; stroke:#000000;stroke-width:1" d="M591.0 119.0 L582.0 349.0" /><polygon style="fill:#000000; stroke:#000000;" points=" 587 339 582 349 577 339 582 341" /><path style="fill:none; stroke:#000000;stroke-width:1" d="M362.0 240.0 L360.0 339.0" /><polygon style="fill:#000000; stroke:#000000;" points=" 365 329 360 339 355 329 360 331" /><path style="fill:none; stroke:#000000;stroke-width:1" d="M610.0 399.0 L790.0 390.0" /><polygon style="fill:#000000; stroke:#000000;" points=" 780 386 790 390 780 395 782 390" /><path style="fill:none; stroke:#000000;stroke-width:1" d="M610.0 366.0 L846.0 96.0" /><polygon style="fill:#000000; stroke:#000000;" points=" 836 100 846 96 843 107 841 102" /><path style="fill:none; stroke:#000000;stroke-width:1" d="M329.0 391.0 L155.0 391.0" /><polygon style="fill:#000000; stroke:#000000;" points=" 165 396 155 391 165 386 163 391" /><defs><linearGradient xmlns:xlink="http://www.w3.org/1999/xlink" xlink:href="#linearGradient66FF6696FF96B6FFB6" id="linearGradient66FF6696FF96B6FFB6_1835200206" x1="0" y1="60.0" x2="0" y2="95.0" gradientUnits="userSpaceOnUse" xlink:type="simple" xlink:actuate="onLoad" xlink:show="other" /><linearGradient id="linearGradient66FF6696FF96B6FFB6"><stop style="stop-color:#66FF66;stop-opacity:1;" offset="0.0" id="stop66FF66" /><stop style="stop-color:#96FF96;stop-opacity:1;" offset="0.5" id="stop96FF96" /><stop style="stop-color:#B6FFB6;stop-opacity:1;" offset="1.0" id="stopB6FFB6" /></linearGradient><linearGradient xmlns:xlink="http://www.w3.org/1999/xlink" xlink:href="#linearGradientF8FBFEEDF5FCDEEDFAD4E7F8E2E5E9" id="linearGradientF8FBFEEDF5FCDEEDFAD4E7F8E2E5E9_1671761170" x1="0" y1="203.0" x2="0" y2="309.0" gradientUnits="userSpaceOnUse" xlink:type="simple" xlink:actuate="onLoad" xlink:show="other" /><linearGradient id="linearGradientF8FBFEEDF5FCDEEDFAD4E7F8E2E5E9"><stop style="stop-color:#F8FBFE;stop-opacity:1;" offset="0.0" id="stopF8FBFE" /><stop style="stop-color:#EDF5FC;stop-opacity:1;" offset="0.25" id="stopEDF5FC" /><stop style="stop-color:#DEEDFA;stop-opacity:1;" offset="0.5" id="stopDEEDFA" /><stop style="stop-color:#D4E7F8;stop-opacity:1;" offset="0.75" id="stopD4E7F8" /><stop style="stop-color:#E2E5E9;stop-opacity:1;" offset="1.0" id="stopE2E5E9" /></linearGradient><linearGradient xmlns:xlink="http://www.w3.org/1999/xlink" xlink:href="#linearGradientFAFBFCFFFFCC" id="linearGradientFAFBFCFFFFCC_1738180030" x1="0" y1="33.0" x2="0" y2="93.0" gradientUnits="userSpaceOnUse" xlink:type="simple" xlink:actuate="onLoad" xlink:show="other" /><linearGradient id="linearGradientFAFBFCFFFFCC"><stop style="stop-color:#FAFBFC;stop-opacity:1;" offset="0.0" id="stopFAFBFC" /><stop style="stop-color:#FFFFCC;stop-opacity:1;" offset="1.0" id="stopFFFFCC" /></linearGradient><linearGradient xmlns:xlink="http://www.w3.org/1999/xlink" xlink:href="#linearGradientF8FBFEEDF5FCDEEDFAD4E7F8E2E5E9" id="linearGradientF8FBFEEDF5FCDEEDFAD4E7F8E2E5E9_580388649" x1="0" y1="49.0" x2="0" y2="155.0" gradientUnits="userSpaceOnUse" xlink:type="simple" xlink:actuate="onLoad" xlink:show="other" /><linearGradient xmlns:xlink="http://www.w3.org/1999/xlink" xlink:href="#linearGradientF8FBFEEDF5FCDEEDFAD4E7F8E2E5E9" id="linearGradientF8FBFEEDF5FCDEEDFAD4E7F8E2E5E9_1484163370" x1="0" y1="170.0" x2="0" y2="276.0" gradientUnits="userSpaceOnUse" xlink:type="simple" xlink:actuate="onLoad" xlink:show="other" /><linearGradient xmlns:xlink="http://www.w3.org/1999/xlink" xlink:href="#linearGradientFF6666FF9696FFB6B6" id="linearGradientFF6666FF9696FFB6B6_334545579" x1="0" y1="373.0" x2="0" y2="408.0" gradientUnits="userSpaceOnUse" xlink:type="simple" xlink:actuate="onLoad" xlink:show="other" /><linearGradient id="linearGradientFF6666FF9696FFB6B6"><stop style="stop-color:#FF6666;stop-opacity:1;" offset="0.0" id="stopFF6666" /><stop style="stop-color:#FF9696;stop-opacity:1;" offset="0.5" id="stopFF9696" /><stop style="stop-color:#FFB6B6;stop-opacity:1;" offset="1.0" id="stopFFB6B6" /></linearGradient><linearGradient xmlns:xlink="http://www.w3.org/1999/xlink" xlink:href="#linearGradientFF6666FF9696FFB6B6" id="linearGradientFF6666FF9696FFB6B6_552866334" x1="0" y1="66.0" x2="0" y2="101.0" gradientUnits="userSpaceOnUse" xlink:type="simple" xlink:actuate="onLoad" xlink:show="other" /><linearGradient xmlns:xlink="http://www.w3.org/1999/xlink" xlink:href="#linearGradientFAFBFCFFFFCC" id="linearGradientFAFBFCFFFFCC_1119352934" x1="0" y1="350.0" x2="0" y2="410.0" gradientUnits="userSpaceOnUse" xlink:type="simple" xlink:actuate="onLoad" xlink:show="other" /><linearGradient xmlns:xlink="http://www.w3.org/1999/xlink" xlink:href="#linearGradientFAFBFCFFFFCC" id="linearGradientFAFBFCFFFFCC_786695875" x1="0" y1="340.0" x2="0" y2="400.0" gradientUnits="userSpaceOnUse" xlink:type="simple" xlink:actuate="onLoad" xlink:show="other" /><linearGradient xmlns:xlink="http://www.w3.org/1999/xlink" xlink:href="#linearGradientFF6666FF9696FFB6B6" id="linearGradientFF6666FF9696FFB6B6_991194158" x1="0" y1="374.0" x2="0" y2="409.0" gradientUnits="userSpaceOnUse" xlink:type="simple" xlink:actuate="onLoad" xlink:show="other" /></defs></svg>
