<?xml version="1.0" encoding="UTF-8"?>
<svg xmlns="http://www.w3.org/2000/svg" style="stroke-dasharray:none; shape-rendering:auto; font-family:'Arial'; text-rendering:auto; fill-opacity:1; color-interpolation:auto; color-rendering:auto; font-size:12; fill:black; stroke:black; image-rendering:auto; stroke-miterlimit:10; stroke-linecap:square; stroke-linejoin:miter; font-style:normal; stroke-width:1; stroke-dashoffset:0; font-weight:normal; stroke-opacity:1;" contentScriptType="text/ecmascript" preserveAspectRatio="xMidYMid meet" zoomAndPan="magnify" version="1.0" contentStyleType="text/css" xml:xlink="http://www.w3.org/1999/xlink" width="1168" height="638"><rect x="0" y="0" width="1168" height="159" ry="0" rx="0" style="stroke:#000000; fill:#95CAFF" /><g componentSequence="1"><text x="-79" y="7" transform="rotate(270)" text-anchor="middle" style="font-weight:bold;font-size:10px;stroke:none; fill:#434343"><tspan dy="14" x="-79">Solicitante</tspan></text></g><rect x="0" y="308" width="1168" height="203" ry="0" rx="0" style="stroke:#000000; fill:#FFFF9B" /><g componentSequence="4"><text x="-409" y="7" transform="rotate(270)" text-anchor="middle" style="font-weight:bold;font-size:10px;stroke:none; fill:#434343"><tspan dy="14" x="-409">BPM</tspan></text></g><rect x="0" y="510" width="1168" height="128" ry="0" rx="0" style="stroke:#000000; fill:#CAFF95" /><g componentSequence="3"><text x="-574" y="7" transform="rotate(270)" text-anchor="middle" style="font-weight:bold;font-size:10px;stroke:none; fill:#434343"><tspan dy="14" x="-574">Executor</tspan></text></g><rect x="0" y="157" width="1168" height="152" ry="0" rx="0" style="stroke:#000000; fill:#FFC488" /><g componentSequence="2"><text x="-233" y="7" transform="rotate(270)" text-anchor="middle" style="font-weight:bold;font-size:10px;stroke:none; fill:#434343"><tspan dy="14" x="-233">Verificador da Eficácia</tspan></text></g><g sequence="1"><ellipse cx="137" cy="81" rx="17" ry="17" stroke-width="1" style="fill:url(#linearGradient66FF6696FF96B6FFB6_1825831420);" stroke="336633" /></g><g sequence="5"><rect x="80" y="530" width="106" height="84" ry="5" rx="5" style="fill:url(#linearGradientF8FBFEEDF5FCDEEDFAD4E7F8E2E5E9_1645484566);" stroke="191970" /></g><g componentSequence="5"><text x="133" y="545" text-anchor="middle" style="font-weight:bold;font-size:10px;stroke:none; fill:#333399"><tspan dy="14" x="133">Definir Causa e</tspan><tspan dy="14" x="133">Registrar o</tspan><tspan dy="14" x="133">Plano de Ação</tspan></text></g><g sequence="9"><rect x="632" y="200" width="106" height="70" ry="5" rx="5" style="fill:url(#linearGradientF8FBFEEDF5FCDEEDFAD4E7F8E2E5E9_1714131596);" stroke="191970" /></g><g componentSequence="9"><text x="685" y="215" text-anchor="middle" style="font-weight:bold;font-size:10px;stroke:none; fill:#333399"><tspan dy="14" x="685">Verificar</tspan><tspan dy="14" x="685">Eficácia</tspan></text></g><g sequence="10"><rect x="890" y="340" width="106" height="56" ry="5" rx="5" style="fill:url(#linearGradientF8FBFEEDF5FCDEEDFAD4E7F8E2E5E9_589893677);" stroke="191970" /></g><g componentSequence="10"><text x="943" y="357" text-anchor="middle" style="font-weight:bold;font-size:10px;stroke:none; fill:#333399"><tspan dy="14" x="943">Notificar</tspan></text></g><g sequence="11"><ellipse cx="1077" cy="367" rx="17" ry="17" stroke-width="3" style="fill:url(#linearGradientFF6666FF9696FFB6B6_1346769325);" stroke="993333" /></g><g sequence="19"><polygon points=" 780 350 810 320 840 350 810 380 780 350" style="fill:url(#linearGradientFAFBFCFFFFCC_306214169);" stroke="000000" /></g><g componentSequence="19"><text x="810" y="390" text-anchor="middle" style="font-weight:bold;font-size:10px;stroke:none; fill:#333399"><tspan dy="14" x="810">Foi</tspan><tspan dy="14" x="810">Eficaz?</tspan></text></g><g sequence="25"><rect x="630" y="530" width="106" height="70" ry="5" rx="5" style="fill:url(#linearGradientF8FBFEEDF5FCDEEDFAD4E7F8E2E5E9_684010031);" stroke="191970" /></g><g componentSequence="25"><text x="683" y="545" text-anchor="middle" style="font-weight:bold;font-size:10px;stroke:none; fill:#333399"><tspan dy="14" x="683">Executar o Plano</tspan><tspan dy="14" x="683">de Ação</tspan></text></g><rect x="180" y="54" width="105" height="55" ry="5" rx="5" style="stroke:none; fill:#FFFFE0" /><g componentSequence="1"><text x="190" y="77" text-anchor="left" style="font-weight:bold;font-size:10px;stroke:none; fill:#000000"><tspan dy="14" x="190">Registrar</tspan><tspan dy="14" x="190">Ocorrência</tspan></text></g><path style="fill:none; stroke-width:1; stroke:#000000;" d="M200.0 54.0 L180.0 54.0 L180.0 109.0 L200.0 109.0" /><rect x="1030" y="240" width="105" height="55" ry="5" rx="5" style="stroke:none; fill:#FFFFE0" /><g componentSequence="2"><text x="1040" y="253" text-anchor="left" style="font-weight:bold;font-size:10px;stroke:none; fill:#000000"><tspan dy="14" x="1040">Fim</tspan></text></g><path style="fill:none; stroke-width:1; stroke:#000000;" d="M1050.0 240.0 L1030.0 240.0 L1030.0 295.0 L1050.0 295.0" /><g componentSequence="12"><text x="1038" y="367" style="font-size:10px;font-weight:none;stroke:none; fill:#333399" text-anchor="left" /></g><g componentSequence="20"><text x="850" y="350" style="font-size:10px;font-weight:none;stroke:none; fill:#333399" text-anchor="left"><tspan dy="14" x="850">Sim</tspan></text></g><g componentSequence="24"><text x="818" y="243" style="font-size:10px;font-weight:none;stroke:none; fill:#333399" text-anchor="left" /></g><g componentSequence="26"><text x="694" y="400" style="font-size:10px;font-weight:none;stroke:none; fill:#333399" text-anchor="left" /></g><g componentSequence="28"><text x="145" y="314" style="font-size:10px;font-weight:none;stroke:none; fill:#333399" text-anchor="left" /></g><g componentSequence="15"><text x="177" y="81" style="font-size:10px;font-weight:none;stroke:none; fill:#333399" text-anchor="left" /></g><g componentSequence="16"><text x="1090" y="322" style="font-size:10px;font-weight:none;stroke:none; fill:#333399" text-anchor="left" /></g><g componentSequence="33"><text x="417" y="547" style="font-size:10px;font-weight:none;stroke:none; fill:#333399" text-anchor="left" /></g><g componentSequence="34"><text x="606" y="617" style="font-size:10px;font-weight:none;stroke:none; fill:#333399" text-anchor="left"><tspan dy="14" x="606">Não</tspan></text></g><path style="fill:none; stroke:#000000;stroke-width:1" d="M137.0 98.0 L133.0 529.0" /><polygon style="fill:#000000; stroke:#000000;" points=" 138 519 133 529 128 519 133 521" /><path style="fill:none; stroke:#000000;stroke-dasharray:2" d="M179.0 81.0 L155.0 81.0" /><path style="fill:none; stroke:#000000;stroke-width:1" d="M186.0 566.0 L379.0 545.0 L629.0 561.0" /><polygon style="fill:#000000; stroke:#000000;" points=" 619 555 629 561 619 565 621 560" /><path style="fill:none; stroke:#000000;stroke-width:1" d="M810.0 422.0 L813.0 617.0 L497.0 617.0 L186.0 578.0" /><polygon style="fill:#000000; stroke:#000000;" points=" 195 584 186 578 197 574 194 579" /><path style="fill:none; stroke:#000000;stroke-width:1" d="M738.0 236.0 L808.0 237.0 L809.0 319.0" /><polygon style="fill:#000000; stroke:#000000;" points=" 814 309 809 319 804 309 809 311" /><path style="fill:none; stroke:#000000;stroke-width:1" d="M683.0 529.0 L684.0 270.0" /><polygon style="fill:#000000; stroke:#000000;" points=" 679 280 684 270 689 280 684 278" /><path style="fill:none; stroke:#000000;stroke-width:1" d="M996.0 367.0 L1060.0 367.0" /><polygon style="fill:#000000; stroke:#000000;" points=" 1050 362 1060 367 1050 372 1052 367" /><path style="fill:none; stroke:#000000;stroke-width:1" d="M840.0 370.0 L889.0 369.0" /><polygon style="fill:#000000; stroke:#000000;" points=" 879 364 889 369 879 374 881 369" /><path style="fill:none; stroke:#000000;stroke-dasharray:2" d="M1081.0 295.0 L1077.0 350.0" /><defs><linearGradient xmlns:xlink="http://www.w3.org/1999/xlink" xlink:href="#linearGradient66FF6696FF96B6FFB6" id="linearGradient66FF6696FF96B6FFB6_1825831420" x1="0" y1="64.0" x2="0" y2="99.0" gradientUnits="userSpaceOnUse" xlink:type="simple" xlink:actuate="onLoad" xlink:show="other" /><linearGradient id="linearGradient66FF6696FF96B6FFB6"><stop style="stop-color:#66FF66;stop-opacity:1;" offset="0.0" id="stop66FF66" /><stop style="stop-color:#96FF96;stop-opacity:1;" offset="0.5" id="stop96FF96" /><stop style="stop-color:#B6FFB6;stop-opacity:1;" offset="1.0" id="stopB6FFB6" /></linearGradient><linearGradient xmlns:xlink="http://www.w3.org/1999/xlink" xlink:href="#linearGradientF8FBFEEDF5FCDEEDFAD4E7F8E2E5E9" id="linearGradientF8FBFEEDF5FCDEEDFAD4E7F8E2E5E9_1645484566" x1="0" y1="530.0" x2="0" y2="636.0" gradientUnits="userSpaceOnUse" xlink:type="simple" xlink:actuate="onLoad" xlink:show="other" /><linearGradient id="linearGradientF8FBFEEDF5FCDEEDFAD4E7F8E2E5E9"><stop style="stop-color:#F8FBFE;stop-opacity:1;" offset="0.0" id="stopF8FBFE" /><stop style="stop-color:#EDF5FC;stop-opacity:1;" offset="0.25" id="stopEDF5FC" /><stop style="stop-color:#DEEDFA;stop-opacity:1;" offset="0.5" id="stopDEEDFA" /><stop style="stop-color:#D4E7F8;stop-opacity:1;" offset="0.75" id="stopD4E7F8" /><stop style="stop-color:#E2E5E9;stop-opacity:1;" offset="1.0" id="stopE2E5E9" /></linearGradient><linearGradient xmlns:xlink="http://www.w3.org/1999/xlink" xlink:href="#linearGradientF8FBFEEDF5FCDEEDFAD4E7F8E2E5E9" id="linearGradientF8FBFEEDF5FCDEEDFAD4E7F8E2E5E9_1714131596" x1="0" y1="200.0" x2="0" y2="306.0" gradientUnits="userSpaceOnUse" xlink:type="simple" xlink:actuate="onLoad" xlink:show="other" /><linearGradient xmlns:xlink="http://www.w3.org/1999/xlink" xlink:href="#linearGradientF8FBFEEDF5FCDEEDFAD4E7F8E2E5E9" id="linearGradientF8FBFEEDF5FCDEEDFAD4E7F8E2E5E9_589893677" x1="0" y1="340.0" x2="0" y2="446.0" gradientUnits="userSpaceOnUse" xlink:type="simple" xlink:actuate="onLoad" xlink:show="other" /><linearGradient xmlns:xlink="http://www.w3.org/1999/xlink" xlink:href="#linearGradientFF6666FF9696FFB6B6" id="linearGradientFF6666FF9696FFB6B6_1346769325" x1="0" y1="350.0" x2="0" y2="385.0" gradientUnits="userSpaceOnUse" xlink:type="simple" xlink:actuate="onLoad" xlink:show="other" /><linearGradient id="linearGradientFF6666FF9696FFB6B6"><stop style="stop-color:#FF6666;stop-opacity:1;" offset="0.0" id="stopFF6666" /><stop style="stop-color:#FF9696;stop-opacity:1;" offset="0.5" id="stopFF9696" /><stop style="stop-color:#FFB6B6;stop-opacity:1;" offset="1.0" id="stopFFB6B6" /></linearGradient><linearGradient xmlns:xlink="http://www.w3.org/1999/xlink" xlink:href="#linearGradientFAFBFCFFFFCC" id="linearGradientFAFBFCFFFFCC_306214169" x1="0" y1="320.0" x2="0" y2="380.0" gradientUnits="userSpaceOnUse" xlink:type="simple" xlink:actuate="onLoad" xlink:show="other" /><linearGradient id="linearGradientFAFBFCFFFFCC"><stop style="stop-color:#FAFBFC;stop-opacity:1;" offset="0.0" id="stopFAFBFC" /><stop style="stop-color:#FFFFCC;stop-opacity:1;" offset="1.0" id="stopFFFFCC" /></linearGradient><linearGradient xmlns:xlink="http://www.w3.org/1999/xlink" xlink:href="#linearGradientF8FBFEEDF5FCDEEDFAD4E7F8E2E5E9" id="linearGradientF8FBFEEDF5FCDEEDFAD4E7F8E2E5E9_684010031" x1="0" y1="530.0" x2="0" y2="636.0" gradientUnits="userSpaceOnUse" xlink:type="simple" xlink:actuate="onLoad" xlink:show="other" /></defs></svg>
