<?xml version="1.0" encoding="UTF-8"?>
<svg xmlns="http://www.w3.org/2000/svg" style="stroke-dasharray:none; shape-rendering:auto; font-family:'Arial'; text-rendering:auto; fill-opacity:1; color-interpolation:auto; color-rendering:auto; font-size:12; fill:black; stroke:black; image-rendering:auto; stroke-miterlimit:10; stroke-linecap:square; stroke-linejoin:miter; font-style:normal; stroke-width:1; stroke-dashoffset:0; font-weight:normal; stroke-opacity:1;" contentScriptType="text/ecmascript" preserveAspectRatio="xMidYMid meet" zoomAndPan="magnify" version="1.0" contentStyleType="text/css" xml:xlink="http://www.w3.org/1999/xlink" width="841" height="444"><rect x="40" y="299" width="800" height="145" ry="0" rx="0" style="stroke:#000000; fill:#82B0B7" /><g componentSequence="9"><text x="-371" y="47" transform="rotate(270)" text-anchor="middle" style="font-weight:bold;font-size:10px;stroke:none; fill:#434343"><tspan dy="14" x="-371">SwimLane</tspan></text></g><rect x="10" y="10" width="831" height="434" ry="0" rx="0" style="stroke:#000000; fill:#FFFFFF" /><rect x="40" y="227" width="801" height="217" ry="0" rx="0" style="stroke:#000000; fill:#C0C0C0" /><g componentSequence="3"><text x="-335" y="47" transform="rotate(270)" text-anchor="middle" style="font-weight:bold;font-size:10px;stroke:none; fill:#434343"><tspan dy="14" x="-335">sinalTreino</tspan></text></g><rect x="40" y="10" width="801" height="217" ry="0" rx="0" style="stroke:#000000; fill:#9F9F9F" /><g componentSequence="2"><text x="-118" y="47" transform="rotate(270)" text-anchor="middle" style="font-weight:bold;font-size:10px;stroke:none; fill:#434343"><tspan dy="14" x="-118">Reporter</tspan></text></g><g componentSequence="1"><text x="-227" y="17" transform="rotate(270)" text-anchor="middle" style="font-weight:bold;font-size:10px;stroke:none; fill:#434343"><tspan dy="14" x="-227">Pool</tspan></text></g><g sequence="4"><ellipse cx="97" cy="83" rx="17" ry="17" stroke-width="1" style="fill:url(#linearGradient66FF6696FF96B6FFB6_368478006);" stroke="336633" /></g><g sequence="10"><rect x="150" y="330" width="106" height="56" ry="5" rx="5" style="fill:url(#linearGradientF8FBFEEDF5FCDEEDFAD4E7F8E2E5E9_456223736);" stroke="191970" /></g><g componentSequence="10"><text x="203" y="347" text-anchor="middle" style="font-weight:bold;font-size:10px;stroke:none; fill:#333399"><tspan dy="14" x="203">Avaliar Jogador</tspan></text></g><g sequence="12"><polygon points=" 450 360 480 330 510 360 480 390 450 360" style="fill:url(#linearGradientFAFBFCFFFFCC_521071686);" stroke="000000" /></g><g componentSequence="12"><text x="480" y="400" text-anchor="middle" style="font-weight:bold;font-size:10px;stroke:none; fill:#333399"><tspan dy="14" x="480">Exclusiv</tspan><tspan dy="14" x="480">o</tspan></text></g><g sequence="14"><rect x="480" y="180" width="106" height="70" ry="5" rx="5" style="fill:url(#linearGradientF8FBFEEDF5FCDEEDFAD4E7F8E2E5E9_1510760899);" stroke="191970" /></g><g componentSequence="14"><text x="533" y="195" text-anchor="middle" style="font-weight:bold;font-size:10px;stroke:none; fill:#333399"><tspan dy="14" x="533">Liberar para</tspan><tspan dy="14" x="533">treino</tspan></text></g><g sequence="16"><rect x="630" y="350" width="106" height="70" ry="5" rx="5" style="fill:url(#linearGradientF8FBFEEDF5FCDEEDFAD4E7F8E2E5E9_2078446211);" stroke="191970" /></g><g componentSequence="16"><text x="683" y="365" text-anchor="middle" style="font-weight:bold;font-size:10px;stroke:none; fill:#333399"><tspan dy="14" x="683">Manter jogador</tspan><tspan dy="14" x="683">em repouso</tspan></text></g><g sequence="18"><ellipse cx="720" cy="227" rx="17" ry="17" stroke-width="3" style="fill:url(#linearGradientFF6666FF9696FFB6B6_1797019820);" stroke="993333" /></g><g sequence="21"><rect x="160" y="42" width="106" height="84" ry="5" rx="5" style="fill:url(#linearGradientF8FBFEEDF5FCDEEDFAD4E7F8E2E5E9_51967317);" stroke="191970" /></g><g componentSequence="21"><text x="213" y="57" text-anchor="middle" style="font-weight:bold;font-size:10px;stroke:none; fill:#333399"><tspan dy="14" x="213">Enviar ao</tspan><tspan dy="14" x="213">departamento</tspan><tspan dy="14" x="213">médico</tspan></text></g><g sequence="29"><polygon points=" 170 230 200 200 230 230 200 260 170 230" style="fill:url(#linearGradientFAFBFCFFFFCC_975412876);" stroke="000000" /></g><g componentSequence="29"><text x="200" y="270" text-anchor="middle" style="font-weight:bold;font-size:10px;stroke:none; fill:#333399"><tspan dy="14" x="200">Exclusiv</tspan><tspan dy="14" x="200">o</tspan></text></g><g sequence="32"><ellipse cx="377" cy="83" rx="17" ry="17" stroke-width="3" style="fill:url(#linearGradientFF6666FF9696FFB6B6_1429894593);" stroke="993333" /></g><g sequence="32"><polygon points=" 368 79 373 74 378 79 383 74 388 79 383 84 388 89 383 94 378 89 373 94 368 89 373 84" style="stroke:none; fill:#993333" /></g><g componentSequence="13"><text x="363" y="370" style="font-size:10px;font-weight:none;stroke:none; fill:#333399" text-anchor="left" /></g><g componentSequence="15"><text x="519" y="290" style="font-size:10px;font-weight:none;stroke:none; fill:#333399" text-anchor="left" /></g><g componentSequence="17"><text x="580" y="382" style="font-size:10px;font-weight:none;stroke:none; fill:#333399" text-anchor="left" /></g><g componentSequence="23"><text x="147" y="83" style="font-size:10px;font-weight:none;stroke:none; fill:#333399" text-anchor="left" /></g><g componentSequence="24"><text x="654" y="222" style="font-size:10px;font-weight:none;stroke:none; fill:#333399" text-anchor="left" /></g><g componentSequence="28"><text x="714" y="297" style="font-size:10px;font-weight:none;stroke:none; fill:#333399" text-anchor="left" /></g><g componentSequence="30"><text x="216" y="163" style="font-size:10px;font-weight:none;stroke:none; fill:#333399" text-anchor="left" /></g><g componentSequence="31"><text x="212" y="316" style="font-size:10px;font-weight:none;stroke:none; fill:#333399" text-anchor="left" /></g><g componentSequence="33"><text x="305" y="161" style="font-size:10px;font-weight:none;stroke:none; fill:#333399" text-anchor="left" /></g><path style="fill:none; stroke:#000000;stroke-width:1" d="M114.0 83.0 L159.0 83.0" /><polygon style="fill:#000000; stroke:#000000;" points=" 149 78 159 83 149 88 151 83" /><path style="fill:none; stroke:#000000;stroke-width:1" d="M256.0 362.0 L449.0 378.0" /><polygon style="fill:#000000; stroke:#000000;" points=" 439 372 449 378 439 382 441 377" /><path style="fill:none; stroke:#000000;stroke-width:1" d="M201.0 302.0 L202.0 329.0" /><polygon style="fill:#000000; stroke:#000000;" points=" 207 319 202 329 197 319 202 321" /><path style="fill:none; stroke:#000000;stroke-width:1" d="M496.0 329.0 L521.0 250.0" /><polygon style="fill:#000000; stroke:#000000;" points=" 513 258 521 250 523 261 519 258" /><path style="fill:none; stroke:#F00000;stroke-width:1" d="M510.0 381.0 L629.0 384.0" /><polygon style="fill:#F00000; stroke:#F00000;" points=" 619 379 629 384 619 389 621 384" /><polygon style="fill:#F00000; stroke:#F00000;" points=" 520 386 510 381 520 376 518 381" /><path style="fill:none; stroke:#000000;stroke-width:1" d="M586.0 218.0 L703.0 226.0" /><polygon style="fill:#000000; stroke:#000000;" points=" 693 220 703 226 693 230 695 225" /><path style="fill:none; stroke:#000000;stroke-width:1" d="M691.0 349.0 L716.0 244.0" /><polygon style="fill:#000000; stroke:#000000;" points=" 709 253 716 244 719 255 714 252" /><path style="fill:none; stroke:#000000;stroke-width:1" d="M209.0 126.0 L204.0 199.0" /><polygon style="fill:#000000; stroke:#000000;" points=" 210 189 204 199 200 189 205 191" /><path style="fill:none; stroke:#000000;stroke-width:1" d="M230.0 222.0 L364.0 95.0" /><polygon style="fill:#000000; stroke:#000000;" points=" 353 98 364 95 360 106 358 101" /><defs><linearGradient xmlns:xlink="http://www.w3.org/1999/xlink" xlink:href="#linearGradient66FF6696FF96B6FFB6" id="linearGradient66FF6696FF96B6FFB6_368478006" x1="0" y1="66.0" x2="0" y2="101.0" gradientUnits="userSpaceOnUse" xlink:type="simple" xlink:actuate="onLoad" xlink:show="other" /><linearGradient id="linearGradient66FF6696FF96B6FFB6"><stop style="stop-color:#66FF66;stop-opacity:1;" offset="0.0" id="stop66FF66" /><stop style="stop-color:#96FF96;stop-opacity:1;" offset="0.5" id="stop96FF96" /><stop style="stop-color:#B6FFB6;stop-opacity:1;" offset="1.0" id="stopB6FFB6" /></linearGradient><linearGradient xmlns:xlink="http://www.w3.org/1999/xlink" xlink:href="#linearGradientF8FBFEEDF5FCDEEDFAD4E7F8E2E5E9" id="linearGradientF8FBFEEDF5FCDEEDFAD4E7F8E2E5E9_456223736" x1="0" y1="330.0" x2="0" y2="436.0" gradientUnits="userSpaceOnUse" xlink:type="simple" xlink:actuate="onLoad" xlink:show="other" /><linearGradient id="linearGradientF8FBFEEDF5FCDEEDFAD4E7F8E2E5E9"><stop style="stop-color:#F8FBFE;stop-opacity:1;" offset="0.0" id="stopF8FBFE" /><stop style="stop-color:#EDF5FC;stop-opacity:1;" offset="0.25" id="stopEDF5FC" /><stop style="stop-color:#DEEDFA;stop-opacity:1;" offset="0.5" id="stopDEEDFA" /><stop style="stop-color:#D4E7F8;stop-opacity:1;" offset="0.75" id="stopD4E7F8" /><stop style="stop-color:#E2E5E9;stop-opacity:1;" offset="1.0" id="stopE2E5E9" /></linearGradient><linearGradient xmlns:xlink="http://www.w3.org/1999/xlink" xlink:href="#linearGradientFAFBFCFFFFCC" id="linearGradientFAFBFCFFFFCC_521071686" x1="0" y1="330.0" x2="0" y2="390.0" gradientUnits="userSpaceOnUse" xlink:type="simple" xlink:actuate="onLoad" xlink:show="other" /><linearGradient id="linearGradientFAFBFCFFFFCC"><stop style="stop-color:#FAFBFC;stop-opacity:1;" offset="0.0" id="stopFAFBFC" /><stop style="stop-color:#FFFFCC;stop-opacity:1;" offset="1.0" id="stopFFFFCC" /></linearGradient><linearGradient xmlns:xlink="http://www.w3.org/1999/xlink" xlink:href="#linearGradientF8FBFEEDF5FCDEEDFAD4E7F8E2E5E9" id="linearGradientF8FBFEEDF5FCDEEDFAD4E7F8E2E5E9_1510760899" x1="0" y1="180.0" x2="0" y2="286.0" gradientUnits="userSpaceOnUse" xlink:type="simple" xlink:actuate="onLoad" xlink:show="other" /><linearGradient xmlns:xlink="http://www.w3.org/1999/xlink" xlink:href="#linearGradientF8FBFEEDF5FCDEEDFAD4E7F8E2E5E9" id="linearGradientF8FBFEEDF5FCDEEDFAD4E7F8E2E5E9_2078446211" x1="0" y1="350.0" x2="0" y2="456.0" gradientUnits="userSpaceOnUse" xlink:type="simple" xlink:actuate="onLoad" xlink:show="other" /><linearGradient xmlns:xlink="http://www.w3.org/1999/xlink" xlink:href="#linearGradientFF6666FF9696FFB6B6" id="linearGradientFF6666FF9696FFB6B6_1797019820" x1="0" y1="210.0" x2="0" y2="245.0" gradientUnits="userSpaceOnUse" xlink:type="simple" xlink:actuate="onLoad" xlink:show="other" /><linearGradient id="linearGradientFF6666FF9696FFB6B6"><stop style="stop-color:#FF6666;stop-opacity:1;" offset="0.0" id="stopFF6666" /><stop style="stop-color:#FF9696;stop-opacity:1;" offset="0.5" id="stopFF9696" /><stop style="stop-color:#FFB6B6;stop-opacity:1;" offset="1.0" id="stopFFB6B6" /></linearGradient><linearGradient xmlns:xlink="http://www.w3.org/1999/xlink" xlink:href="#linearGradientF8FBFEEDF5FCDEEDFAD4E7F8E2E5E9" id="linearGradientF8FBFEEDF5FCDEEDFAD4E7F8E2E5E9_51967317" x1="0" y1="42.0" x2="0" y2="148.0" gradientUnits="userSpaceOnUse" xlink:type="simple" xlink:actuate="onLoad" xlink:show="other" /><linearGradient xmlns:xlink="http://www.w3.org/1999/xlink" xlink:href="#linearGradientFAFBFCFFFFCC" id="linearGradientFAFBFCFFFFCC_975412876" x1="0" y1="200.0" x2="0" y2="260.0" gradientUnits="userSpaceOnUse" xlink:type="simple" xlink:actuate="onLoad" xlink:show="other" /><linearGradient xmlns:xlink="http://www.w3.org/1999/xlink" xlink:href="#linearGradientFF6666FF9696FFB6B6" id="linearGradientFF6666FF9696FFB6B6_1429894593" x1="0" y1="66.0" x2="0" y2="101.0" gradientUnits="userSpaceOnUse" xlink:type="simple" xlink:actuate="onLoad" xlink:show="other" /></defs></svg>
